<svg width="1336" height="1329" viewBox="0 0 1336 1329" fill="none" xmlns="http://www.w3.org/2000/svg">
<g filter="url(#filter0_f_22_17)">
<path fill-rule="evenodd" clip-rule="evenodd" d="M566.081 468.155C614.49 451.882 660.723 388.72 706.133 411.338C753.583 434.972 724.795 509.515 743.782 556.664C755.699 586.258 795.97 604.679 796.727 636.308C797.528 669.797 744.416 691.131 747.795 724.477C752.378 769.702 818.263 796.859 817.599 842.285C817.027 881.382 772.505 906.887 744.702 936.022C712.418 969.852 688.347 1031.47 640.072 1028.31C583.997 1024.64 560.51 956.239 518.501 921.209C494.565 901.249 468.612 885.055 444.527 865.254C422.188 846.889 402.138 827.522 380.879 808.062C353.714 783.198 293.955 768.76 300.845 733.74C309.091 691.83 406.386 702.11 410.081 659.634C415.331 599.275 302.321 558.453 321.131 500.518C335.216 457.137 416.441 498.953 464.304 492.629C499.366 487.996 532.746 479.361 566.081 468.155Z" fill="url(#paint0_linear_22_17)" fill-opacity="0.8"/>
</g>
<g filter="url(#filter1_f_22_17)">
<path fill-rule="evenodd" clip-rule="evenodd" d="M745.681 325.741C793.022 330.113 845.698 308.71 885.76 332.767C925.793 356.805 931.262 408.578 951.111 449.097C969.094 485.807 986.359 521.02 997.143 560.136C1010.87 609.933 1056.88 669.41 1023 709.864C986.931 752.939 906.363 711.46 852.578 732.773C808.703 750.16 792.188 806.119 746.699 819.358C697.325 833.727 642.852 825.594 594.769 807.805C542.805 788.58 478.263 765.079 463.422 714.556C447.762 661.249 520.508 616.388 522.304 561.114C524.007 508.706 460.059 464.495 473.205 413.53C486.201 363.145 536.029 322.132 588.29 305.294C639.257 288.873 692.057 320.789 745.681 325.741Z" fill="url(#paint1_linear_22_17)"/>
</g>
<defs>
<filter id="filter0_f_22_17" x="0.296631" y="106.502" width="1117.31" height="1221.93" filterUnits="userSpaceOnUse" color-interpolation-filters="sRGB">
<feFlood flood-opacity="0" result="BackgroundImageFix"/>
<feBlend mode="normal" in="SourceGraphic" in2="BackgroundImageFix" result="shape"/>
<feGaussianBlur stdDeviation="150" result="effect1_foregroundBlur_22_17"/>
</filter>
<filter id="filter1_f_22_17" x="161.215" y="0.639297" width="1173.98" height="1126.09" filterUnits="userSpaceOnUse" color-interpolation-filters="sRGB">
<feFlood flood-opacity="0" result="BackgroundImageFix"/>
<feBlend mode="normal" in="SourceGraphic" in2="BackgroundImageFix" result="shape"/>
<feGaussianBlur stdDeviation="150" result="effect1_foregroundBlur_22_17"/>
</filter>
<linearGradient id="paint0_linear_22_17" x1="300.894" y1="1029.14" x2="904.202" y2="820.124" gradientUnits="userSpaceOnUse">
<stop stop-color="#6CACE4"/>
<stop offset="0.0666667" stop-color="#6CACE4"/>
<stop offset="0.133333" stop-color="#6DADE4"/>
<stop offset="0.2" stop-color="#6FAEE5"/>
<stop offset="0.266667" stop-color="#72B0E5"/>
<stop offset="0.333333" stop-color="#75B3E6"/>
<stop offset="0.4" stop-color="#79B6E7"/>
<stop offset="0.466667" stop-color="#7DB9E8"/>
<stop offset="0.533333" stop-color="#82BDEA"/>
<stop offset="0.6" stop-color="#86C0EB"/>
<stop offset="0.666667" stop-color="#8AC3EC"/>
<stop offset="0.733333" stop-color="#8DC6ED"/>
<stop offset="0.8" stop-color="#90C8ED"/>
<stop offset="0.866667" stop-color="#92C9EE"/>
<stop offset="0.933333" stop-color="#93CAEE"/>
<stop offset="1" stop-color="#93CAEE"/>
</linearGradient>
<linearGradient id="paint1_linear_22_17" x1="204.06" y1="567.315" x2="704.609" y2="1111.07" gradientUnits="userSpaceOnUse">
<stop stop-color="#E24444" stop-opacity="0.14"/>
<stop offset="0.9999" stop-color="#C359F1" stop-opacity="0.968646"/>
<stop offset="1" stop-color="#620C90"/>
</linearGradient>
</defs>
</svg>
