<svg width="275" height="271" viewBox="0 0 275 271" fill="none" xmlns="http://www.w3.org/2000/svg">
<defs>
    <linearGradient id="grad1" x1="0%" y1="0%" x2="100%" y2="0%">
       <stop offset="0%" style="stop-color:#707070;stop-opacity:1">
        <animate attributeName="stop-color" values="#707070;#A394A1;#BCA9BF;#A394A1;#707070" dur="7s" repeatCount="indefinite" />
      </stop>
      <stop offset="25%" style="stop-color:#A394A1;stop-opacity:1">
        <animate attributeName="stop-color" values="#A394A1;#BCA9BF;#A394A1;#707070" dur="7s" repeatCount="indefinite" />
      </stop>
      <stop offset="50%" style="stop-color:#BCA9BF;stop-opacity:1">
        <animate attributeName="stop-color" values="#BCA9BF;#A394A1;#707070" dur="7s" repeatCount="indefinite" />
      </stop>
      <stop offset="75%" style="stop-color:#A394A1;stop-opacity:1">
        <animate attributeName="stop-color" values="#A394A1;#707070" dur="7s" repeatCount="indefinite" />
      </stop>
      <stop offset="100%" style="stop-color:#707070;stop-opacity:1">
        <animate attributeName="stop-color" values="#707070;#A394A1;#BCA9BF;#A394A1;#707070" dur="7s" repeatCount="indefinite" />
      </stop>
    </linearGradient>
  </defs>
<path d="M106.786 269.506C106.747 269.506 106.705 269.501 106.665 269.494C106.325 269.431 106.096 269.114 106.138 268.771L107.379 258.786C107.413 258.519 107.605 258.299 107.867 258.233C108.111 258.17 108.401 258.268 108.557 258.488L109.512 259.822C109.627 259.977 109.663 260.176 109.615 260.363L107.419 269.013C107.343 269.307 107.081 269.506 106.786 269.506Z" stroke="url(#grad1)"/>
<path d="M206.099 25.8644C205.837 25.8644 205.593 25.7062 205.49 25.4501L205.174 24.6473C205.105 24.4711 205.117 24.2738 205.204 24.1066C205.289 23.9379 205.445 23.8174 205.629 23.7722L214.414 21.6544C214.754 21.5851 215.097 21.7734 215.194 22.1063C215.293 22.4422 215.109 22.7946 214.781 22.9076L206.313 25.8282C206.241 25.8523 206.168 25.8644 206.099 25.8644Z" stroke="url(#grad1)"/>
<path d="M159.749 4.49224C159.486 4.49224 159.242 4.33408 159.14 4.07952L157.884 0.902812C157.763 0.595534 157.89 0.246086 158.179 0.0879276C158.474 -0.0702308 158.833 0.0126264 159.022 0.282239L161.095 3.17875C161.216 3.34595 161.252 3.56133 161.188 3.75716C161.125 3.95446 160.972 4.10963 160.776 4.17589L159.959 4.45605C159.89 4.48014 159.818 4.49224 159.749 4.49224Z" stroke="url(#grad1)"/>
<path d="M15.5401 165.107C15.4226 165.107 15.3051 165.074 15.1997 165.012L0.314875 155.967C0.0256734 155.791 -0.0797703 155.422 0.0708611 155.119C0.218469 154.815 0.570945 154.678 0.893277 154.8L17.0373 161.102C17.206 161.167 17.3386 161.299 17.4049 161.465C17.4741 161.632 17.4681 161.819 17.3928 161.983L16.1336 164.726C16.0553 164.896 15.9106 165.024 15.7329 165.079C15.6696 165.098 15.6034 165.107 15.5401 165.107ZM7.40332 158.745L15.2509 163.514L15.9167 162.068L7.40332 158.745Z" stroke="url(#grad1)"/>
<path d="M201.927 240.256C201.849 240.256 201.77 240.242 201.692 240.212L201.147 240.003C200.978 239.938 200.842 239.804 200.776 239.635C200.707 239.467 200.713 239.277 200.791 239.111L200.806 239.08C200.957 238.76 201.342 238.619 201.668 238.766L202.198 239.007C202.52 239.153 202.665 239.528 202.529 239.855C202.424 240.104 202.183 240.256 201.927 240.256Z" stroke="url(#grad1)"/>
<path d="M13.8948 139.438H13.8767C13.6719 139.432 13.4821 139.331 13.3616 139.164L0.121606 120.631C-0.0410563 120.402 -0.0380544 120.093 0.127631 119.866C0.290293 119.637 0.582522 119.542 0.853646 119.629L11.7198 123.108C11.8554 123.151 11.9698 123.236 12.0542 123.351L18.8444 132.864C19.0131 133.102 19.0041 133.423 18.8233 133.651L14.4069 139.191C14.2804 139.347 14.0937 139.438 13.8948 139.438ZM2.33279 121.474L13.9219 137.7L17.4918 133.223L11.1143 124.286L2.33279 121.474Z" stroke="url(#grad1)"/>
<path d="M106.785 269.506C106.577 269.506 106.378 269.406 106.252 269.232L95.0876 253.595C94.9701 253.428 94.937 253.213 94.9972 253.017C95.0605 252.821 95.2111 252.666 95.4069 252.598L102.119 250.275C102.384 250.182 102.694 250.275 102.866 250.513L108.56 258.488C108.653 258.62 108.695 258.786 108.674 258.948L107.433 268.933C107.4 269.2 107.207 269.42 106.945 269.486C106.894 269.5 106.839 269.506 106.785 269.506ZM96.6601 253.547L106.342 267.109L107.346 259.039L102.086 251.67L96.6601 253.547Z" stroke="url(#grad1)"/>
<path d="M260.165 131.964H260.147C259.942 131.958 259.752 131.857 259.632 131.689L256.297 127.016C256.089 126.723 256.155 126.317 256.447 126.106L273.019 114.155C273.281 113.961 273.652 113.998 273.875 114.235C274.101 114.47 274.116 114.837 273.914 115.092L260.677 131.717C260.55 131.873 260.364 131.964 260.165 131.964ZM257.74 126.785L260.192 130.225L269.934 117.993L257.74 126.785Z" stroke="url(#grad1)"/>
<path d="M106.786 269.506C106.575 269.506 106.373 269.403 106.247 269.223C106.081 268.98 106.096 268.658 106.286 268.432L110.805 263.046C110.934 262.892 111.127 262.811 111.329 262.812C111.531 262.821 111.718 262.92 111.835 263.085L114.034 266.151C114.155 266.319 114.188 266.534 114.128 266.731C114.064 266.927 113.914 267.082 113.718 267.15L107 269.47C106.931 269.494 106.858 269.506 106.786 269.506ZM111.266 264.531L108.804 267.465L112.462 266.201L111.266 264.531Z" stroke="url(#grad1)"/>
<path d="M9.43676 178.368C9.31926 178.368 9.2018 178.337 9.09333 178.27C8.81317 178.097 8.7047 177.742 8.8433 177.442L16.2059 161.438C16.3475 161.126 16.715 160.98 17.0373 161.102L21.1434 162.706C21.3362 162.781 21.4838 162.944 21.535 163.145C21.5892 163.345 21.5471 163.56 21.4175 163.721L9.94889 178.121C9.81936 178.282 9.62956 178.368 9.43676 178.368ZM17.1367 162.544L12.2836 173.09L19.842 163.601L17.1367 162.544Z" stroke="url(#grad1)"/>
<path d="M72.1298 256.139C71.9219 256.139 71.7201 256.039 71.5966 255.864C71.4429 255.647 71.4369 255.356 71.5815 255.132L79.7816 242.419C79.8719 242.277 80.0135 242.178 80.1762 242.137L80.7576 241.996C81.077 241.923 81.4023 242.088 81.5198 242.392L85.3788 252.193C85.4481 252.369 85.436 252.567 85.3487 252.734C85.2643 252.901 85.1077 253.023 84.9239 253.068L72.2834 256.121C72.2322 256.133 72.181 256.139 72.1298 256.139ZM80.5829 243.585L73.5637 254.468L83.8876 251.973L80.5829 243.585Z" stroke="url(#grad1)"/>
<path d="M222.442 219.866C222.298 219.866 222.153 219.817 222.039 219.726C221.882 219.602 221.789 219.412 221.789 219.212V208.486C221.789 208.185 221.996 207.921 222.289 207.85L228.076 206.449C228.22 206.419 228.362 206.43 228.494 206.489L244.123 213.448C244.379 213.561 244.533 213.824 244.509 214.103C244.485 214.381 244.283 214.613 244.012 214.68L222.596 219.848C222.545 219.86 222.493 219.866 222.442 219.866ZM223.096 209V218.382L241.837 213.859L228.166 207.772L223.096 209Z" stroke="url(#grad1)"/>
<path d="M86.3336 257.075C86.0715 257.075 85.8245 256.915 85.7251 256.659L80.3026 242.871C80.2333 242.694 80.2453 242.497 80.3327 242.33C80.417 242.163 80.5737 242.041 80.7574 241.996L84.1676 241.172C84.3483 241.131 84.5381 241.164 84.6888 241.268C84.8424 241.372 84.9448 241.535 84.9689 241.718L86.9813 256.332C87.0265 256.66 86.8186 256.969 86.4993 257.054C86.4421 257.067 86.3878 257.075 86.3336 257.075ZM81.7937 243.091L84.9388 251.074L83.773 242.612L81.7937 243.091Z" stroke="url(#grad1)"/>
<path d="M196.556 250.541C196.511 250.541 196.463 250.536 196.417 250.525C196.116 250.459 195.902 250.194 195.902 249.887V237.171C195.902 236.95 196.014 236.742 196.201 236.621C196.39 236.502 196.628 236.487 196.824 236.576L201.665 238.766C201.828 238.838 201.951 238.971 202.012 239.137C202.072 239.301 202.063 239.483 201.988 239.643L197.15 250.159C197.041 250.396 196.806 250.541 196.556 250.541ZM197.21 238.183V246.901L200.53 239.685L197.21 238.183Z" stroke="url(#grad1)"/>
<path d="M169.244 20.7132C169.12 20.7132 169 20.6785 168.891 20.6107C168.726 20.5038 168.614 20.326 168.593 20.1272L166.623 1.30657C166.593 1.01136 166.765 0.732673 167.042 0.627265C167.316 0.52485 167.632 0.616716 167.807 0.859244L178.977 16.5017C179.095 16.6689 179.128 16.8843 179.068 17.0801C179.004 17.2759 178.854 17.4311 178.658 17.4988L169.458 20.677C169.389 20.7011 169.316 20.7132 169.244 20.7132ZM168.181 3.63524L169.807 19.1738L177.405 16.5499L168.181 3.63524Z" stroke="url(#grad1)"/>
<path d="M243.858 214.698C243.638 214.698 243.43 214.586 243.31 214.4L230.669 194.951C230.6 194.845 230.564 194.722 230.564 194.595V191.214C230.564 191.066 230.615 190.923 230.706 190.807L263.653 149.436L243.828 137.388C243.545 137.214 243.436 136.856 243.575 136.555L244.31 134.966C244.358 134.863 244.431 134.776 244.521 134.71L256.447 126.106C256.589 126.003 256.764 125.96 256.935 125.991C257.107 126.02 257.261 126.115 257.363 126.256L273.935 149.466C274.071 149.658 274.095 149.906 273.995 150.119L244.452 214.317C244.352 214.534 244.144 214.678 243.906 214.696C243.888 214.696 243.873 214.698 243.858 214.698ZM231.871 194.401L243.759 212.694L272.649 149.917L256.679 127.55L245.425 135.669L245.006 136.573L264.967 148.704C265.127 148.802 265.238 148.963 265.271 149.149C265.301 149.334 265.256 149.524 265.139 149.67L231.871 191.443V194.401Z" stroke="url(#grad1)"/>
<path d="M108.813 37.7216C108.681 37.7216 108.548 37.6809 108.44 37.6026C108.289 37.4987 108.19 37.336 108.166 37.1553L106.138 22.2192C106.09 21.8637 106.337 21.5369 106.693 21.4857C107.078 21.436 107.379 21.68 107.431 22.0325L109.708 36.9143C109.762 37.2562 109.539 37.5785 109.202 37.6523L108.952 37.7066C108.907 37.7171 108.859 37.7216 108.813 37.7216Z" stroke="url(#grad1)"/>
<path d="M93.5517 39.4041C93.4734 39.4041 93.392 39.3891 93.3167 39.3604L72.437 31.302C72.2683 31.2372 72.1358 31.1047 72.0665 30.9375C71.9972 30.7703 72.0032 30.5835 72.0785 30.4193L76.9046 19.9283C76.9889 19.746 77.1516 19.6119 77.3444 19.5652L158.339 0.0260918C158.586 -0.0311315 158.851 0.057711 159.008 0.261062C159.167 0.464413 159.191 0.740041 159.071 0.967484L156.733 5.38534C156.655 5.53143 156.525 5.64292 156.369 5.69712L107.177 22.6877L94.0638 39.1571C93.9373 39.3168 93.7475 39.4041 93.5517 39.4041ZM73.5577 30.3335L93.3408 37.9687L106.274 21.7252C106.352 21.6273 106.454 21.555 106.572 21.5143L155.697 4.54636L157.236 1.63627L77.959 20.7612L73.5577 30.3335Z" stroke="url(#grad1)"/>
<path d="M51.6181 51.5265C51.4735 51.5265 51.3289 51.4783 51.2144 51.3864C51.0577 51.2629 50.9644 51.0731 50.9644 50.8728V29.1465C50.9644 28.9658 51.0397 28.7925 51.1722 28.669C51.3048 28.5455 51.4735 28.4792 51.6602 28.4943L72.1724 29.8364C72.5219 29.859 72.79 30.1512 72.784 30.4991L72.54 45.994C72.534 46.2922 72.3291 46.5483 72.0399 46.6191L51.7717 51.5084C51.7205 51.5204 51.6693 51.5265 51.6181 51.5265ZM52.2718 29.8439V50.0428L71.2416 45.4668L71.4675 31.1001L52.2718 29.8439Z" stroke="url(#grad1)"/>
<path d="M59.489 248.455C59.2812 248.455 59.0823 248.355 58.9558 248.18L8.9029 178.094C8.77336 177.912 8.74626 177.676 8.8306 177.468C8.91493 177.261 9.0987 177.111 9.32163 177.072L40.6578 171.447C40.8054 171.413 40.9771 171.45 41.1127 171.532L50.4424 177.206C50.5177 177.252 50.581 177.313 50.6352 177.385L57.1031 186.439C57.2206 186.603 57.2537 186.813 57.1965 187.005L52.3072 203.327L68.885 245.444C68.9543 245.62 68.9423 245.817 68.8549 245.984C68.7675 246.153 68.6139 246.273 68.4301 246.319L59.6426 248.436C59.5914 248.449 59.5402 248.455 59.489 248.455ZM10.5688 178.176L59.7631 247.063L67.3938 245.224L51.0088 203.595C50.9545 203.458 50.9485 203.309 50.9907 203.169L55.8529 186.938L49.6471 178.254L40.6427 172.777L10.5688 178.176Z" stroke="url(#grad1)"/>
<path d="M222.442 209.14C222.298 209.14 222.153 209.091 222.039 208.999C221.882 208.876 221.789 208.686 221.789 208.486V205.793C221.789 205.612 221.864 205.44 221.996 205.317C222.129 205.192 222.301 205.127 222.484 205.14L225.852 205.356C225.931 205.36 226.006 205.38 226.075 205.412L228.494 206.489C228.75 206.602 228.904 206.865 228.88 207.144C228.856 207.422 228.654 207.654 228.383 207.721L222.596 209.121C222.545 209.134 222.493 209.14 222.442 209.14ZM223.096 206.489V207.656L226.211 206.901L225.651 206.653L223.096 206.489Z" stroke="url(#grad1)"/>
<path d="M80.33 243.427C80.1221 243.427 79.9233 243.327 79.7968 243.151C79.6431 242.934 79.6371 242.643 79.7817 242.419L83.1828 237.15C83.3304 236.918 83.6076 236.811 83.8727 236.865C84.1408 236.926 84.3426 237.144 84.3788 237.415L84.9692 241.719C85.0144 242.051 84.8005 242.363 84.4752 242.443L80.4836 243.409C80.4324 243.421 80.3812 243.427 80.33 243.427ZM83.3244 239.34L81.7669 241.752L83.5925 241.31L83.3244 239.34Z" stroke="url(#grad1)"/>
<path d="M225.81 206.662C225.795 206.662 225.783 206.662 225.768 206.66L222.4 206.445C222.057 206.422 221.789 206.138 221.789 205.793V204.509C221.789 204.288 221.9 204.082 222.087 203.961C222.277 203.842 222.509 203.825 222.707 203.913L226.075 205.412C226.365 205.54 226.521 205.857 226.446 206.165C226.374 206.458 226.108 206.662 225.81 206.662Z" stroke="url(#grad1)"/>
<path d="M0.655004 156.062C0.429073 156.062 0.21517 155.945 0.094677 155.746C-0.0469159 155.513 -0.0258003 155.216 0.142877 155.002L17.7992 132.837C17.9318 132.676 18.1396 132.626 18.3294 132.59C18.5343 132.596 18.7241 132.697 18.8446 132.864L28.6955 146.669C28.7949 146.811 28.8371 146.989 28.8069 147.16C28.7768 147.332 28.6804 147.484 28.5358 147.585L22.3903 151.879C22.315 151.932 22.2306 151.968 22.1402 151.985L0.778517 156.05C0.736348 156.058 0.694181 156.062 0.655004 156.062ZM18.2812 134.329L2.26369 154.437L21.7577 150.727L27.2465 146.891L18.2812 134.329Z" stroke="url(#grad1)"/>
<path d="M96.7479 40.6408C96.6666 40.6408 96.5882 40.6257 96.5129 40.5971L93.3167 39.3604C93.1208 39.2851 92.9762 39.1224 92.922 38.9206C92.8678 38.7203 92.9099 38.5064 93.0395 38.3437L106.273 21.7252C106.439 21.5218 106.71 21.43 106.96 21.5022C107.21 21.5715 107.397 21.7839 107.433 22.0445L109.461 36.9805C109.506 37.3119 109.292 37.6237 108.967 37.7036L96.9015 40.6227C96.8503 40.6347 96.7991 40.6408 96.7479 40.6408ZM94.6181 38.4612L96.7931 39.3032L108.087 36.5709L106.343 23.7361L94.6181 38.4612Z" stroke="url(#grad1)"/>
<path d="M86.283 43.1609C86.2679 43.1609 86.2558 43.1609 86.2408 43.1594L79.8091 42.7407C79.6042 42.7271 79.4205 42.6202 79.306 42.4499L71.5849 30.8503C71.4283 30.6153 71.4433 30.305 71.6181 30.0821C71.7928 29.8577 72.091 29.7763 72.3591 29.8772L72.9014 30.0806L96.9834 39.3772C97.2515 39.4811 97.4202 39.7447 97.3991 40.0309C97.3811 40.3156 97.1792 40.5551 96.9021 40.6228L86.4366 43.1428C86.3854 43.1549 86.3342 43.1609 86.283 43.1609ZM80.2158 41.4573L86.2257 41.8489L94.5613 39.8411L73.8081 31.8308L80.2158 41.4573Z" stroke="url(#grad1)"/>
<path d="M54.3075 65.1281C54.2924 65.1281 54.2803 65.1281 54.2653 65.1265L50.7979 64.9006C50.7286 64.8961 50.6623 64.881 50.5991 64.8554L29.9603 56.6478C29.6952 56.5424 29.5295 56.2788 29.5506 55.9941C29.5687 55.711 29.7706 55.473 30.0477 55.4052L71.7318 45.3479C71.9337 45.3027 72.1355 45.3479 72.2952 45.473C72.4518 45.5995 72.5422 45.7923 72.5392 45.9941L72.4157 53.7348C72.4097 54.0089 72.2349 54.2514 71.9758 54.3418L59.8806 58.5217L54.8196 64.8811C54.693 65.0377 54.5063 65.1281 54.3075 65.1281ZM50.9847 63.6037L54.0092 63.7995L58.9768 57.5591C59.0552 57.4612 59.1576 57.3889 59.2751 57.3483L71.1173 53.2558L71.2197 46.8165L32.3553 56.193L50.9847 63.6037Z" stroke="url(#grad1)"/>
<path d="M193.916 30.0746C193.654 30.0746 193.41 29.9164 193.308 29.6603L188.678 17.892C188.608 17.7157 188.62 17.5184 188.708 17.3512C188.795 17.1825 188.949 17.062 189.132 17.0168L201.773 13.9697C202.095 13.9034 202.418 14.0631 202.535 14.3658L206.707 24.9714C206.774 25.1371 206.768 25.3223 206.692 25.4835C206.617 25.6462 206.482 25.7697 206.313 25.8285L194.13 30.0385C194.058 30.0626 193.989 30.0746 193.916 30.0746ZM190.169 18.1119L194.296 28.5984L205.24 24.8162L201.526 15.3735L190.169 18.1119Z" stroke="url(#grad1)"/>
<path d="M101.372 44.1518C101.357 44.1518 101.345 44.1518 101.33 44.1503L86.2403 43.1592C85.9179 43.1381 85.6589 42.8851 85.6317 42.5627C85.6046 42.2404 85.8155 41.9467 86.1288 41.8714L108.924 36.375C109.102 36.3359 109.289 36.372 109.434 36.4759C109.581 36.5784 109.684 36.738 109.708 36.9158L110.259 40.5549C110.307 40.8667 110.126 41.1679 109.828 41.2704L101.586 44.1157C101.517 44.1398 101.444 44.1518 101.372 44.1518ZM90.6114 42.1365L101.285 42.8369L108.885 40.213L108.524 37.8105L90.6114 42.1365Z" stroke="url(#grad1)"/>
<path d="M222.443 241.598C222.244 241.598 222.048 241.506 221.924 241.34L205.591 219.941C205.443 219.75 205.413 219.492 205.515 219.272L207.977 213.921C208.052 213.758 208.187 213.633 208.356 213.576L214.176 211.569L220.593 203.511C220.78 203.279 221.099 203.202 221.37 203.32L222.708 203.912C222.943 204.017 223.096 204.25 223.096 204.509V240.944C223.096 241.225 222.919 241.473 222.651 241.563C222.584 241.586 222.512 241.598 222.443 241.598ZM206.868 219.461L221.789 239.01V204.934L221.301 204.719L215.08 212.532C215.002 212.63 214.899 212.702 214.782 212.743L209.046 214.72L206.868 219.461Z" stroke="url(#grad1)"/>
<path d="M108.981 260.855C108.774 260.855 108.575 260.756 108.451 260.581L101.8 251.273C101.682 251.105 101.649 250.89 101.709 250.694C101.772 250.498 101.926 250.343 102.119 250.275L111.997 246.864C112.217 246.784 112.473 246.837 112.654 247.001C112.831 247.164 112.904 247.409 112.843 247.643L109.614 260.363C109.551 260.608 109.352 260.797 109.102 260.843C109.063 260.851 109.021 260.855 108.981 260.855ZM103.372 251.226L108.695 258.677L111.28 248.495L103.372 251.226Z" stroke="url(#grad1)"/>
<path d="M115.567 270.083C115.359 270.083 115.16 269.983 115.034 269.808L110.774 263.847C110.599 263.604 110.611 263.274 110.804 263.045L115.802 257.102C115.983 256.886 116.278 256.812 116.546 256.915C116.805 257.02 116.971 257.281 116.956 257.563L116.221 269.47C116.203 269.745 116.013 269.982 115.748 270.057C115.688 270.074 115.627 270.083 115.567 270.083ZM112.133 263.497L115.028 267.546L115.528 259.459L112.133 263.497Z" stroke="url(#grad1)"/>
<path d="M56.5698 187.472C56.3619 187.472 56.1631 187.371 56.0366 187.198L49.5687 178.144C49.391 177.893 49.4121 177.548 49.6229 177.32C49.8338 177.09 50.1773 177.046 50.4423 177.206L58.2116 181.925C58.4647 182.08 58.5822 182.386 58.4978 182.672L57.1964 187.007C57.1241 187.245 56.9223 187.423 56.6752 187.463C56.6421 187.469 56.606 187.472 56.5698 187.472ZM52.4848 179.977L56.3258 185.354L57.1 182.78L52.4848 179.977Z" stroke="url(#grad1)"/>
<path d="M28.1621 147.703C27.9573 147.703 27.7585 147.608 27.6289 147.428L10.9878 124.11C10.8252 123.881 10.8282 123.572 10.9938 123.345C11.1565 123.117 11.4457 123.023 11.7199 123.108L44.2911 133.572C44.496 133.639 44.6556 133.8 44.7189 134.006C44.7792 134.211 44.737 134.434 44.6044 134.603L41.4985 138.495C41.4594 138.543 41.4112 138.587 41.36 138.623L28.5357 147.585C28.4212 147.663 28.2917 147.703 28.1621 147.703ZM13.199 124.955L28.3188 146.142L40.5345 137.605L42.9897 134.527L13.199 124.955Z" stroke="url(#grad1)"/>
<path d="M64.0138 65.7667C63.9988 65.7667 63.9867 65.7667 63.9717 65.7652L54.2653 65.1265C54.0213 65.11 53.8074 64.9608 53.711 64.7379C53.6116 64.5165 53.6448 64.2574 53.7954 64.0676L58.9769 57.5591C59.1125 57.3934 59.3173 57.3015 59.5252 57.3136C59.7361 57.3241 59.9289 57.4371 60.0403 57.6163L64.5651 64.7635C64.6977 64.9713 64.7007 65.2349 64.5772 65.4473C64.4567 65.6461 64.2428 65.7667 64.0138 65.7667ZM55.5969 63.9049L62.7727 64.3764L59.4288 59.0909L55.5969 63.9049Z" stroke="url(#grad1)"/>
<path d="M172.693 37.401C172.431 37.401 172.187 37.2428 172.085 36.9867L169.768 31.1078C169.747 31.0536 169.732 30.9949 169.726 30.9361L168.593 20.1272C168.563 19.8259 168.744 19.5413 169.03 19.4419L187.512 13.0598C187.75 12.9785 188.027 13.0418 188.205 13.2331C188.382 13.4243 188.428 13.7 188.325 13.938L179.161 34.9849C179.089 35.1536 178.947 35.2831 178.775 35.3419L172.907 37.3648C172.835 37.3889 172.762 37.401 172.693 37.401ZM171.018 30.7117L173.073 35.9248L178.077 34.2002L186.533 14.78L169.949 20.5083L171.018 30.7117Z" stroke="url(#grad1)"/>
<path d="M110.139 44.7274C110.124 44.7274 110.112 44.7274 110.097 44.7259L101.33 44.1505C101.02 44.1294 100.767 43.893 100.725 43.5857C100.683 43.2769 100.866 42.9817 101.159 42.8807L109.401 40.0354C109.582 39.9692 109.783 39.9887 109.952 40.0942C110.118 40.1936 110.232 40.3623 110.259 40.5536L110.784 43.9743C110.814 44.1701 110.753 44.369 110.621 44.5151C110.497 44.6506 110.323 44.7274 110.139 44.7274ZM104.65 43.0585L109.371 43.3688L109.087 41.5266L104.65 43.0585Z" stroke="url(#grad1)"/>
<path d="M71.6202 63.295C71.5419 63.295 71.4605 63.28 71.3852 63.2513L59.2539 58.5759C58.9978 58.4765 58.8291 58.2295 58.8351 57.9539C58.8411 57.6797 59.0159 57.4372 59.2749 57.3483L71.5479 53.1067C71.7437 53.0344 71.9727 53.0675 72.1444 53.1956C72.3191 53.3206 72.4185 53.5209 72.4155 53.7348L72.2739 62.6518C72.2709 62.8657 72.1625 63.063 71.9847 63.1835C71.8763 63.2574 71.7498 63.295 71.6202 63.295ZM61.3927 57.999L70.9816 61.6954L71.093 54.6461L61.3927 57.999Z" stroke="url(#grad1)"/>
<path d="M231.218 195.249C231.001 195.249 230.793 195.141 230.669 194.951L229.458 193.088C229.305 192.853 229.32 192.545 229.494 192.324L230.706 190.806C230.88 190.589 231.166 190.507 231.435 190.596C231.697 190.688 231.871 190.937 231.871 191.214V194.595C231.871 194.885 231.682 195.139 231.404 195.222C231.341 195.24 231.281 195.249 231.218 195.249Z" stroke="url(#grad1)"/>
<path d="M71.5781 66.2638C71.5631 66.2638 71.551 66.2638 71.536 66.2623L63.9715 65.7653C63.7637 65.7517 63.5739 65.6387 63.4624 65.4625L58.9376 58.3153C58.787 58.0774 58.8051 57.7686 58.9828 57.5517C59.1606 57.3333 59.4618 57.2565 59.7239 57.3558L71.8553 62.0312C72.1114 62.1292 72.277 62.3777 72.274 62.6503L72.2318 65.6191C72.2288 65.7984 72.1535 65.9686 72.021 66.0906C71.9005 66.202 71.7408 66.2638 71.5781 66.2638ZM64.3873 64.4834L70.9335 64.9127L70.9606 63.0871L61.0976 59.2868L64.3873 64.4834Z" stroke="url(#grad1)"/>
<path d="M178.562 35.3779C178.384 35.3779 178.209 35.3041 178.083 35.1686C177.905 34.9773 177.86 34.7016 177.962 34.4636L187.126 13.4167C187.232 13.1757 187.545 12.9859 187.738 13.0236C188.003 13.0281 188.238 13.1923 188.334 13.4378L194.525 29.1812C194.591 29.3469 194.585 29.5322 194.51 29.6948C194.435 29.856 194.299 29.9795 194.13 30.0383L178.776 35.3418C178.706 35.3659 178.634 35.3779 178.562 35.3779ZM187.696 15.3854L179.755 33.6201L193.058 29.026L187.696 15.3854Z" stroke="url(#grad1)"/>
<path d="M94.3016 64.4803C94.0877 64.4803 93.8798 64.3748 93.7563 64.188L79.3053 42.4497C79.1697 42.2434 79.1607 41.9768 79.2842 41.7614C79.4107 41.5445 79.6427 41.418 79.8927 41.436L110.181 43.4213C110.488 43.4409 110.738 43.6713 110.783 43.9741L111.708 49.9931C111.738 50.1738 111.687 50.3576 111.575 50.4992L102.845 61.4572C102.767 61.5551 102.664 61.6274 102.547 61.6681L94.5155 64.4441C94.4462 64.4682 94.3739 64.4803 94.3016 64.4803ZM81.1249 42.8263L94.5667 63.0433L101.941 60.4947L110.373 49.9087L109.572 44.6911L81.1249 42.8263Z" stroke="url(#grad1)"/>
<path d="M235.368 99.921C235.251 99.921 235.133 99.8879 235.028 99.8261L206.752 82.6443C206.581 82.5403 206.469 82.3626 206.445 82.1638C206.421 81.9649 206.49 81.7646 206.632 81.623L220.459 67.7895L190.108 73.7814C189.982 73.7995 189.861 73.792 189.747 73.7498L186.243 72.3957C186.072 72.3294 185.936 72.1954 185.87 72.0252L172.084 36.9866C172.018 36.8209 172.024 36.6357 172.099 36.473C172.175 36.3118 172.31 36.1868 172.479 36.1296L214.353 21.6725C214.618 21.5806 214.931 21.6725 215.1 21.9105L265.159 91.9996C265.283 92.1743 265.313 92.4003 265.24 92.6021C265.165 92.8055 264.996 92.9576 264.788 93.0118L245.198 98.0743C245.026 98.115 244.849 98.0909 244.695 98.0005L243.767 97.4357L235.555 99.8939C235.495 99.9119 235.432 99.921 235.368 99.921ZM208.144 81.9589L235.459 98.5578L243.671 96.0996C243.845 96.0484 244.035 96.0755 244.198 96.1674L245.138 96.7398L263.541 91.9845L214.32 23.0673L194.13 30.0383L173.552 37.1433L186.981 71.2796L190.042 72.462L222.315 66.0905C222.586 66.0363 222.881 66.1703 223.017 66.4249C223.153 66.6779 223.107 66.9912 222.902 67.1946L208.144 81.9589Z" stroke="url(#grad1)"/>
<path d="M96.9525 68.463C96.9435 68.463 96.9345 68.463 96.9254 68.4615C96.7176 68.454 96.5248 68.3455 96.4073 68.1708L93.7563 64.1882C93.6448 64.021 93.6177 63.8101 93.6809 63.6173C93.7472 63.4261 93.8978 63.2754 94.0876 63.2092L102.119 60.4331C102.384 60.3428 102.697 60.4362 102.866 60.6726C103.035 60.9106 103.026 61.2299 102.845 61.4574L97.4647 68.216C97.3381 68.3726 97.1514 68.463 96.9525 68.463ZM95.3137 64.1687L97.0007 66.7007L100.42 62.4033L95.3137 64.1687Z" stroke="url(#grad1)"/>
<path d="M9.43625 178.368C9.21032 178.368 8.99343 178.249 8.87593 178.049C8.73433 177.816 8.75545 177.52 8.92413 177.308L20.3928 162.908C20.5705 162.682 20.8718 162.602 21.1429 162.706L36.35 168.647L41.1128 171.532C41.3448 171.673 41.4653 171.943 41.4141 172.211C41.3659 172.477 41.155 172.685 40.8869 172.733L9.55073 178.358C9.51458 178.365 9.47543 178.368 9.43625 178.368ZM21.1158 164.098L11.0269 176.766L38.9589 171.751L35.7716 169.814L21.1158 164.098Z" stroke="url(#grad1)"/>
<path d="M40.986 138.74C40.8112 138.74 40.6365 138.67 40.51 138.534C40.287 138.298 40.272 137.933 40.4738 137.678L43.5797 133.786C43.7484 133.574 44.0256 133.491 44.2907 133.571L45.9897 134.11C46.2247 134.185 46.3994 134.389 46.4356 134.636C46.4748 134.881 46.3693 135.127 46.1645 135.27L41.3595 138.623C41.2481 138.701 41.1155 138.74 40.986 138.74ZM44.3238 134.954L44.3088 134.972L44.3298 134.955L44.3238 134.954Z" stroke="url(#grad1)"/>
<path d="M187.226 74.3328C186.961 74.3328 186.717 74.1716 186.617 73.9185L185.87 72.0252C185.777 71.7842 185.831 71.51 186.015 71.3248C186.198 71.1425 186.473 71.0838 186.714 71.1756L190.217 72.5297C190.488 72.6352 190.66 72.9078 190.633 73.197C190.609 73.4877 190.392 73.7257 190.109 73.7814L187.352 74.3207C187.31 74.3282 187.268 74.3328 187.226 74.3328Z" stroke="url(#grad1)"/>
<path d="M115.576 82.3189C115.474 82.3189 115.371 82.2948 115.275 82.2466L100.951 74.8524C100.854 74.8012 100.77 74.7258 100.707 74.6325L96.4077 68.1706C96.251 67.9341 96.2661 67.6238 96.4408 67.4024L110.551 49.6859C110.714 49.4825 110.985 49.3997 111.232 49.4614C111.482 49.5277 111.669 49.7371 111.708 49.9946L116.456 81.1229C116.477 81.2615 116.456 81.4031 116.39 81.5266L116.155 81.9709C116.037 82.1924 115.811 82.3189 115.576 82.3189ZM101.701 73.7679L115.064 80.6665L110.642 51.6696L97.7603 67.8438L101.701 73.7679Z" stroke="url(#grad1)"/>
<path d="M115.567 270.083C115.416 270.083 115.266 270.03 115.148 269.929C114.989 269.797 114.901 269.596 114.913 269.388L115.648 257.481C115.657 257.343 115.712 257.209 115.802 257.102L129.34 240.971C129.415 240.881 129.515 240.813 129.626 240.774L172.747 225.88C172.907 225.826 173.079 225.833 173.229 225.903L196.823 236.576C197.058 236.682 197.209 236.915 197.209 237.171V249.887C197.209 250.188 197.001 250.452 196.709 250.523L115.721 270.065C115.669 270.077 115.618 270.083 115.567 270.083ZM116.941 257.777L116.275 268.586L195.902 249.372V237.593L172.928 227.2L130.226 241.95L116.941 257.777Z" stroke="url(#grad1)"/>
<path d="M201.05 109.463C200.788 109.463 200.541 109.304 200.442 109.049L194.6 94.2109C194.507 93.9684 194.564 93.6927 194.748 93.509L206.632 81.6231C206.843 81.4137 207.181 81.3745 207.434 81.5267L235.709 98.7085C235.929 98.8426 236.049 99.0941 236.016 99.3502C235.983 99.6063 235.802 99.8187 235.555 99.894L219.134 104.812L201.213 109.442C201.159 109.456 201.104 109.463 201.05 109.463ZM195.974 94.1311L201.448 108.032L218.785 103.553L233.775 99.0626L207.193 82.911L195.974 94.1311Z" stroke="url(#grad1)"/>
<path d="M208.569 214.847C208.388 214.847 208.21 214.772 208.084 214.631C207.909 214.439 207.867 214.159 207.975 213.921L210.322 208.814C210.407 208.629 210.572 208.495 210.771 208.45C210.97 208.409 211.178 208.456 211.334 208.584L214.986 211.622C215.166 211.774 215.251 212.011 215.208 212.243C215.166 212.475 215.004 212.666 214.781 212.743L208.783 214.811C208.714 214.835 208.641 214.847 208.569 214.847ZM211.154 210.135L209.801 213.077L213.256 211.886L211.154 210.135Z" stroke="url(#grad1)"/>
<path d="M86.3337 257.075C86.171 257.075 86.0143 257.014 85.8908 256.901C85.7131 256.739 85.6408 256.493 85.701 256.26L95.32 218.389C95.3381 218.322 95.3652 218.255 95.4043 218.197L104.318 204.38C104.403 204.249 104.529 204.152 104.68 204.107L116.748 200.516C116.899 200.471 117.061 200.482 117.203 200.548L123.517 203.405C123.806 203.535 123.96 203.854 123.882 204.161L112.844 247.642C112.79 247.855 112.633 248.027 112.425 248.099L86.5476 257.038C86.4783 257.063 86.406 257.075 86.3337 257.075ZM96.5612 218.816L87.2645 255.409L111.666 246.978L122.481 204.369L116.887 201.839L105.285 205.291L96.5612 218.816Z" stroke="url(#grad1)"/>
<path d="M129.841 242.045C129.63 242.045 129.428 241.943 129.302 241.762C129.136 241.52 129.151 241.196 129.341 240.971L150.278 216.043C150.464 215.82 150.784 215.745 151.046 215.868L173.23 225.903C173.474 226.013 173.628 226.26 173.616 226.528C173.604 226.796 173.429 227.028 173.176 227.115L130.055 242.009C129.985 242.033 129.913 242.045 129.841 242.045ZM150.958 217.263L131.862 240.003L171.197 226.416L150.958 217.263Z" stroke="url(#grad1)"/>
<path d="M104.867 205.387C104.665 205.387 104.469 205.294 104.342 205.125C104.18 204.907 104.168 204.61 104.318 204.38L107.713 199.111C107.753 199.046 107.807 198.99 107.867 198.944L109.06 198.04C109.196 197.938 109.364 197.888 109.539 197.913L112.015 198.234C112.078 198.242 112.142 198.26 112.199 198.287L117.203 200.548C117.453 200.659 117.606 200.915 117.585 201.186C117.567 201.459 117.383 201.691 117.121 201.769L105.053 205.36C104.99 205.378 104.93 205.387 104.867 205.387ZM108.75 199.915L106.373 203.604L115.067 201.016L111.75 199.518L109.635 199.243L108.75 199.915Z" stroke="url(#grad1)"/>
<path d="M241.809 98.9313C241.562 98.9313 241.333 98.7912 241.222 98.5623C241.086 98.2821 241.168 97.9447 241.415 97.7564L243.463 96.205C243.677 96.0423 243.966 96.0273 244.198 96.1673L245.376 96.8828C245.599 97.0199 245.72 97.2774 245.683 97.5365C245.644 97.7971 245.455 98.008 245.198 98.0742L241.972 98.9102C241.918 98.9238 241.864 98.9313 241.809 98.9313Z" stroke="url(#grad1)"/>
<path d="M244.903 135.893C244.756 135.893 244.608 135.844 244.487 135.744C244.259 135.556 244.186 135.237 244.31 134.967L257.932 105.365C258.011 105.194 258.155 105.066 258.336 105.012C258.508 104.958 258.707 104.985 258.866 105.078L273.742 114.126C273.929 114.241 274.046 114.441 274.055 114.66C274.064 114.878 273.962 115.087 273.784 115.215L245.286 135.77C245.171 135.853 245.036 135.893 244.903 135.893ZM258.812 106.577L246.536 133.256L272.221 114.732L258.812 106.577Z" stroke="url(#grad1)"/>
<path d="M86.334 257.075C86.322 257.075 86.3099 257.075 86.2979 257.073C85.9846 257.057 85.7285 256.82 85.6863 256.51L83.0835 237.593C83.0624 237.438 83.0986 237.281 83.1829 237.15L95.4047 218.197C95.5794 217.929 95.9228 217.831 96.2151 217.951C96.5073 218.079 96.6639 218.402 96.5856 218.712L86.9667 256.582C86.8943 256.873 86.6323 257.075 86.334 257.075ZM84.412 237.655L86.5238 253.015L94.3353 222.265L84.412 237.655Z" stroke="url(#grad1)"/>
<path d="M77.558 66.6554C77.5429 66.6554 77.5308 66.6554 77.5158 66.6539L71.536 66.2623C71.1895 66.2397 70.9184 65.949 70.9244 65.6011L71.4757 30.4782C71.4817 30.1393 71.7468 29.8591 72.0842 29.8365C72.4156 29.7883 72.7229 30.0519 72.7741 30.3893L78.2026 65.9023C78.2328 66.0981 78.1725 66.297 78.04 66.4431C77.9165 66.5786 77.7417 66.6554 77.558 66.6554ZM72.2409 64.9986L76.7898 65.2968L72.6596 38.2866L72.5391 45.9941L72.2409 64.9986Z" stroke="url(#grad1)"/>
<path d="M101.252 74.9249C101.149 74.9249 101.047 74.9008 100.954 74.8525L86.156 67.2219L77.5162 66.654C77.2089 66.6344 76.9589 66.404 76.9137 66.1012L71.4851 30.5882C71.4369 30.2839 71.6086 29.9902 71.8948 29.8787C72.178 29.7733 72.5003 29.8727 72.6751 30.1273L101.797 73.9096C101.96 74.1567 101.939 74.485 101.74 74.7064C101.61 74.8495 101.432 74.9249 101.252 74.9249ZM78.1247 65.3842L86.376 65.9265C86.4663 65.9325 86.5537 65.9566 86.632 65.9973L99.3117 72.5359L73.2233 33.3085L78.1247 65.3842Z" stroke="url(#grad1)"/>
<path d="M108.262 200.119C108.103 200.119 107.943 200.06 107.819 199.946C107.587 199.732 107.542 199.381 107.711 199.114L108.337 198.13C108.473 197.914 108.726 197.81 108.979 197.834L109.546 197.914C109.808 197.951 110.022 198.141 110.088 198.397C110.154 198.653 110.061 198.923 109.85 199.082L108.657 199.986C108.539 200.075 108.401 200.119 108.262 200.119Z" stroke="url(#grad1)"/>
<path d="M218.947 104.839C218.661 104.839 218.399 104.649 218.318 104.361C218.221 104.018 218.42 103.661 218.761 103.559L243.671 96.0995C243.963 96.0122 244.298 96.1477 244.439 96.4309C244.584 96.7126 244.506 97.056 244.252 97.2473L242.204 98.7987C242.135 98.8514 242.056 98.8891 241.972 98.9102L219.11 104.818C219.056 104.831 219.002 104.839 218.947 104.839Z" stroke="url(#grad1)"/>
<path d="M57.8717 183.137C57.7542 183.137 57.6367 183.105 57.5313 183.042L35.7719 169.814C35.4827 169.638 35.3773 169.269 35.5279 168.966C35.6725 168.662 36.028 168.52 36.3503 168.647L59.3749 177.642C59.6913 177.766 59.86 178.112 59.7636 178.438L58.4983 182.67C58.4411 182.864 58.2964 183.021 58.1067 183.093C58.0314 183.122 57.95 183.137 57.8717 183.137ZM42.8543 172.59L57.4891 181.486L58.3386 178.641L42.8543 172.59Z" stroke="url(#grad1)"/>
<path d="M111.931 199.536C111.904 199.536 111.877 199.534 111.847 199.53L108.798 199.129C108.575 199.098 108.386 198.956 108.295 198.753C108.202 198.549 108.22 198.313 108.34 198.126L108.75 197.493C108.919 197.233 109.25 197.132 109.536 197.24L112.169 198.274C112.477 198.394 112.645 198.725 112.564 199.045C112.489 199.337 112.227 199.536 111.931 199.536Z" stroke="url(#grad1)"/>
<path d="M222.442 241.598C222.427 241.598 222.415 241.598 222.4 241.597L201.885 240.254C201.806 240.25 201.728 240.23 201.656 240.197L150.509 217.058C150.322 216.974 150.187 216.808 150.139 216.608C150.093 216.409 150.145 216.2 150.277 216.043L153.431 212.282C153.603 212.075 153.889 211.996 154.136 212.081L173.516 218.459C173.537 218.465 173.558 218.474 173.576 218.483L222.707 240.348C222.996 240.476 223.153 240.794 223.078 241.101C223.005 241.395 222.74 241.598 222.442 241.598ZM202.089 238.958L218.833 240.053L173.076 219.69L154.148 213.461L151.832 216.222L202.089 238.958Z" stroke="url(#grad1)"/>
<path d="M123.249 204.654C123.159 204.654 123.065 204.634 122.981 204.595L111.663 199.477C111.347 199.334 111.196 198.969 111.323 198.646C111.449 198.323 111.793 198.148 112.136 198.261L123.782 202.09C124.108 202.197 124.294 202.539 124.21 202.872L123.882 204.161C123.834 204.348 123.707 204.505 123.532 204.589C123.442 204.633 123.346 204.654 123.249 204.654Z" stroke="url(#grad1)"/>
<path d="M22.0164 151.997C21.7573 151.997 21.5163 151.843 21.4139 151.598C21.2934 151.313 21.3898 150.985 21.6428 150.807L45.4176 134.197C45.5833 134.081 45.7972 134.045 45.99 134.112L69.6382 141.703C69.9244 141.795 70.1111 142.068 70.0931 142.366C70.072 142.664 69.8551 142.911 69.5629 142.967L22.1399 151.985C22.0977 151.992 22.0556 151.997 22.0164 151.997ZM45.8996 135.455L24.8933 150.131L66.7944 142.163L45.8996 135.455Z" stroke="url(#grad1)"/>
<path d="M193.209 89.5323C193.149 89.5323 193.091 89.5248 193.031 89.5083C192.835 89.4525 192.676 89.3079 192.6 89.1182L186.618 73.9185C186.548 73.7378 186.56 73.5344 186.654 73.3642C186.747 73.1955 186.91 73.075 187.1 73.0373L222.316 66.0905C222.611 66.0333 222.912 66.1869 223.039 66.464C223.162 66.7427 223.081 67.0696 222.837 67.2533L193.604 89.3998C193.489 89.4872 193.35 89.5323 193.209 89.5323ZM188.121 74.17L193.501 87.8378L219.788 67.9221L188.121 74.17Z" stroke="url(#grad1)"/>
<path d="M195.209 94.6251C195.164 94.6251 195.119 94.6205 195.077 94.6115C194.86 94.5663 194.682 94.4157 194.601 94.2109L192.6 89.1182C192.495 88.8456 192.582 88.5353 192.814 88.3575L222.048 66.2111C222.322 66.0032 222.707 66.0454 222.936 66.303C223.159 66.562 223.147 66.9506 222.903 67.1946L207.555 82.5479L195.67 94.4338C195.547 94.5573 195.381 94.6251 195.209 94.6251ZM193.998 89.1001L195.453 92.804L215.258 72.9967L193.998 89.1001Z" stroke="url(#grad1)"/>
<path d="M222.442 241.598C222.352 241.598 222.261 241.58 222.177 241.541L173.046 219.676C172.727 219.534 172.576 219.168 172.702 218.845C172.826 218.521 173.175 218.35 173.516 218.459L201.629 227.712L205.515 219.272C205.611 219.063 205.807 218.92 206.036 218.896C206.268 218.87 206.488 218.967 206.626 219.149L222.96 240.548C223.144 240.785 223.141 241.114 222.954 241.349C222.828 241.511 222.638 241.598 222.442 241.598ZM185.418 223.752L220.369 239.307L206.247 220.804L202.571 228.787C202.433 229.092 202.099 229.241 201.773 229.135L185.418 223.752Z" stroke="url(#grad1)"/>
<path d="M129.952 178.263H129.931C129.624 178.252 129.364 178.029 129.31 177.727L127.638 168.54C127.608 168.376 127.641 168.207 127.732 168.069L128.425 166.996C128.569 166.769 128.843 166.647 129.108 166.711C129.376 166.767 129.578 166.983 129.618 167.251L130.964 176.055C130.979 176.142 130.973 176.229 130.952 176.314L130.585 177.769C130.512 178.059 130.25 178.263 129.952 178.263Z" stroke="url(#grad1)"/>
<path d="M230.007 193.386C229.998 193.386 229.986 193.386 229.974 193.384C229.766 193.375 229.573 193.264 229.459 193.087L222.69 182.67C222.569 182.483 222.551 182.245 222.644 182.042L243.575 136.556C243.654 136.386 243.798 136.258 243.979 136.204C244.154 136.149 244.346 136.177 244.509 136.27L264.967 148.704C265.127 148.802 265.238 148.963 265.271 149.148C265.302 149.334 265.256 149.524 265.139 149.67L230.519 193.14C230.392 193.295 230.206 193.386 230.007 193.386ZM223.982 182.261L230.061 191.616L263.654 149.436L244.455 137.769L223.982 182.261Z" stroke="url(#grad1)"/>
<path d="M214.567 212.779C214.417 212.779 214.266 212.726 214.148 212.628L210.497 209.59C210.271 209.4 210.199 209.083 210.323 208.813L214.037 200.759C214.188 200.432 214.576 200.29 214.896 200.437L221.369 203.321C221.556 203.402 221.692 203.567 221.74 203.762C221.788 203.958 221.743 204.166 221.616 204.324L215.079 212.532C214.968 212.67 214.808 212.758 214.633 212.776C214.612 212.777 214.588 212.779 214.567 212.779ZM211.72 208.905L214.471 211.196L220.068 204.171L214.953 201.893L211.72 208.905Z" stroke="url(#grad1)"/>
<path d="M59.1368 178.905C59.0555 178.905 58.9742 178.889 58.8988 178.859L0.416946 156.017C0.0885674 155.889 -0.0801111 155.523 0.0403817 155.19C0.157882 154.856 0.516374 154.679 0.85376 154.786L60.4533 173.914C60.7937 174.023 60.9835 174.384 60.8811 174.725L59.7634 178.439C59.7092 178.614 59.5857 178.758 59.423 178.838C59.3326 178.882 59.2362 178.905 59.1368 178.905ZM21.143 162.706L58.7151 177.385L59.4441 174.963L20.6279 162.504L21.143 162.706Z" stroke="url(#grad1)"/>
<path d="M201.978 229.168C201.912 229.168 201.843 229.158 201.773 229.135L153.727 213.323C153.522 213.255 153.362 213.089 153.302 212.881C153.245 212.672 153.293 212.447 153.431 212.282L156.842 208.216C157.028 207.993 157.348 207.92 157.607 208.04L202.243 227.918C202.563 228.06 202.713 228.426 202.587 228.75C202.487 229.009 202.24 229.168 201.978 229.168ZM155.052 212.383L189.901 223.851L157.525 209.433L155.052 212.383Z" stroke="url(#grad1)"/>
<path d="M123.578 203.365C123.508 203.365 123.439 203.354 123.373 203.332L111.726 199.503L109.06 198.457C108.877 198.385 108.735 198.236 108.678 198.049C108.618 197.862 108.642 197.659 108.75 197.495L112.802 191.224C112.965 190.976 113.269 190.87 113.549 190.956L125.617 194.83C125.946 194.936 126.135 195.279 126.051 195.614L124.21 202.872C124.165 203.047 124.051 203.196 123.891 203.283C123.795 203.338 123.686 203.365 123.578 203.365ZM110.28 197.533L112.169 198.274L123.117 201.872L124.635 195.886L113.627 192.354L110.28 197.533Z" stroke="url(#grad1)"/>
<path d="M223.237 182.969C223.017 182.969 222.809 182.857 222.689 182.67L193.205 137.296C193.1 137.132 193.073 136.928 193.13 136.742L201.285 111.207L200.441 109.047C200.372 108.873 200.384 108.678 200.468 108.511C200.553 108.346 200.706 108.224 200.887 108.177L264.463 91.7466C264.704 91.6818 264.966 91.7662 265.126 91.9605C265.289 92.1533 265.325 92.4229 265.219 92.6519L223.83 182.587C223.731 182.804 223.523 182.949 223.285 182.967C223.267 182.967 223.252 182.969 223.237 182.969ZM194.471 136.844L223.138 180.965L263.457 93.3568L241.972 98.9104L201.926 109.258L202.586 110.947C202.64 111.087 202.646 111.241 202.601 111.384L194.471 136.844Z" stroke="url(#grad1)"/>
<path d="M201.978 229.168C201.888 229.168 201.798 229.15 201.713 229.111L157.077 209.233C156.89 209.15 156.751 208.983 156.706 208.783C156.658 208.584 156.709 208.373 156.842 208.216L177.077 184.121C177.261 183.895 177.58 183.826 177.842 183.945L214.896 200.437C215.056 200.507 215.182 200.64 215.242 200.803C215.303 200.967 215.297 201.148 215.224 201.307L202.572 228.787C202.463 229.027 202.225 229.168 201.978 229.168ZM158.399 208.393L201.656 227.655L213.76 201.361L177.761 185.338L158.399 208.393Z" stroke="url(#grad1)"/>
<path d="M170.376 31.5219C170.114 31.5219 169.867 31.3623 169.768 31.1077L159.14 4.07793C159.073 3.91224 159.079 3.72546 159.155 3.56431C159.23 3.40315 159.369 3.27813 159.537 3.22087L167.059 0.621087C167.246 0.551802 167.454 0.578916 167.623 0.687347C167.792 0.794298 167.903 0.972045 167.924 1.17086L171.027 30.8004C171.06 31.1258 170.849 31.4255 170.53 31.5023C170.479 31.5159 170.427 31.5219 170.376 31.5219ZM160.607 4.2346L169.225 26.1552L166.71 2.12586L160.607 4.2346Z" stroke="url(#grad1)"/>
<path d="M115.811 81.8746C115.775 81.8746 115.739 81.8716 115.703 81.8655C115.423 81.8174 115.209 81.5974 115.167 81.3187L108.97 40.7523L106.141 22.2313C106.093 21.918 106.274 21.6168 106.572 21.5144L155.941 4.46204C156.188 4.3777 156.477 4.4485 156.652 4.65484C156.827 4.85819 156.857 5.1489 156.733 5.38538L116.39 81.5266C116.275 81.7435 116.049 81.8746 115.811 81.8746ZM110.259 40.555L116.161 79.1678L154.802 6.23793L107.515 22.5718L110.259 40.555Z" stroke="url(#grad1)"/>
<path d="M130.319 176.808C130.31 176.808 130.298 176.808 130.289 176.806C129.976 176.791 129.72 176.561 129.675 176.254L128.328 167.45C128.304 167.291 128.337 167.13 128.424 166.996L130.651 163.547C130.825 163.271 131.169 163.167 131.467 163.304L133.467 164.199C133.756 164.329 133.91 164.648 133.832 164.957L130.952 176.315C130.88 176.606 130.617 176.808 130.319 176.808ZM129.656 167.496L130.479 172.869L132.431 165.168L131.443 164.726L129.656 167.496Z" stroke="url(#grad1)"/>
<path d="M60.2545 175.19C60.1882 175.19 60.1189 175.18 60.0556 175.159L0.456095 156.031C0.169917 155.939 -0.0168715 155.666 0.00120553 155.368C0.0223057 155.07 0.239183 154.823 0.531408 154.767L69.3161 141.684C69.4306 141.667 69.536 141.672 69.6415 141.705L70.0662 141.843C70.4036 141.953 70.5934 142.312 70.491 142.652L60.8811 174.725C60.8299 174.892 60.7154 175.034 60.5587 175.115C60.4654 175.165 60.3599 175.19 60.2545 175.19ZM3.29991 155.571L59.8207 173.711L68.9998 143.074L3.29991 155.571Z" stroke="url(#grad1)"/>
<path d="M125.418 196.106C125.352 196.106 125.283 196.096 125.219 196.074L113.151 192.2C112.956 192.139 112.802 191.99 112.736 191.798C112.666 191.607 112.69 191.395 112.802 191.224L127.732 168.069C127.877 167.843 128.148 167.733 128.407 167.781C128.672 167.834 128.874 168.042 128.922 168.305L130.594 177.492C130.612 177.585 130.609 177.68 130.585 177.77L126.051 195.614C126.009 195.788 125.891 195.937 125.735 196.025C125.638 196.079 125.527 196.106 125.418 196.106ZM114.362 191.217L124.957 194.618L129.283 177.587L127.934 170.167L114.362 191.217Z" stroke="url(#grad1)"/>
<path d="M88.2526 79.7809C88.1712 79.7809 88.0899 79.7658 88.0116 79.7342L50.5992 64.8554C50.3009 64.7364 50.1322 64.4186 50.2015 64.1053C50.2738 63.7905 50.5691 63.554 50.8823 63.5962L86.3758 65.9264C86.683 65.946 86.9331 66.1764 86.9783 66.4792L88.8972 79.0278C88.9334 79.2598 88.843 79.4932 88.6592 79.6393C88.5417 79.7327 88.3972 79.7809 88.2526 79.7809ZM54.9251 65.1702L87.4332 78.0984L85.7672 67.1961L54.9251 65.1702Z" stroke="url(#grad1)"/>
<path d="M72.1299 256.139C71.8618 256.139 71.6208 255.975 71.5213 255.725L51.0091 203.595C50.9549 203.458 50.9489 203.309 50.9911 203.169L69.2378 142.276C69.2891 142.108 69.4035 141.967 69.5602 141.885C69.7108 141.804 69.9006 141.786 70.0633 141.842L98.6942 151.031C99.0226 151.137 99.2124 151.48 99.128 151.815L72.7625 255.647C72.6932 255.921 72.4552 256.12 72.172 256.138C72.157 256.139 72.1419 256.139 72.1299 256.139ZM52.3075 203.327L71.9973 253.359L97.7121 152.087L70.2982 143.289L52.3075 203.327Z" stroke="url(#grad1)"/>
<path d="M243.858 214.698C243.768 214.698 243.677 214.68 243.593 214.64L177.312 185.137C177.125 185.055 176.986 184.887 176.941 184.689C176.893 184.488 176.944 184.277 177.077 184.121L178.565 182.348L193.13 136.741C193.209 136.5 193.417 136.326 193.667 136.293C193.914 136.249 194.164 136.371 194.302 136.585L244.406 213.688C244.563 213.931 244.542 214.249 244.355 214.469C244.229 214.618 244.045 214.698 243.858 214.698ZM178.634 184.297L242.108 212.548L229.458 193.087L193.956 138.452L179.773 182.867C179.746 182.949 179.704 183.024 179.649 183.089L178.634 184.297Z" stroke="url(#grad1)"/>
<path d="M111.93 89.201C111.849 89.201 111.768 89.186 111.689 89.1543L88.0111 79.7342C87.7942 79.6483 87.6405 79.4555 87.6074 79.2266L85.6884 66.678C85.6493 66.4339 85.7517 66.1914 85.9505 66.0483C86.1524 65.9052 86.4145 65.8842 86.6313 65.9971L115.877 81.0838C116.03 81.1651 116.148 81.3037 116.199 81.4694C116.25 81.6366 116.235 81.8173 116.154 81.971L112.509 88.8531C112.391 89.073 112.165 89.201 111.93 89.201ZM88.8425 78.6587L111.626 87.7234L114.69 81.9424L87.1736 67.7474L88.8425 78.6587Z" stroke="url(#grad1)"/>
<path d="M133.199 165.449C133.109 165.449 133.018 165.43 132.931 165.392L130.931 164.497C130.759 164.419 130.626 164.27 130.572 164.088C130.518 163.905 130.545 163.709 130.648 163.548L131.575 162.098C131.738 161.849 132.048 161.741 132.329 161.828L133.871 162.325C134.199 162.431 134.386 162.774 134.302 163.109L133.832 164.957C133.784 165.144 133.657 165.3 133.482 165.384C133.395 165.427 133.296 165.449 133.199 165.449ZM132.157 163.615L132.756 163.881L132.886 163.381L132.407 163.227L132.157 163.615Z" stroke="url(#grad1)"/>
<path d="M72.1297 256.14C72.0424 256.14 71.952 256.121 71.8677 256.085C71.5754 255.957 71.4188 255.635 71.4971 255.325L97.8626 151.492C97.9048 151.318 98.0223 151.169 98.1789 151.081C98.3356 150.994 98.5284 150.974 98.6941 151.032L132.326 161.828C132.519 161.89 132.672 162.038 132.741 162.229C132.811 162.42 132.787 162.631 132.678 162.803L128.828 168.777L84.2792 237.858L72.678 255.84C72.5545 256.031 72.3466 256.14 72.1297 256.14ZM98.9562 152.488L73.7475 251.773L131.118 162.813L98.9562 152.488Z" stroke="url(#grad1)"/>
<path d="M133.669 163.601C133.6 163.601 133.531 163.59 133.464 163.568C133.26 163.5 133.103 163.337 133.043 163.131L111.304 88.7311C111.256 88.5669 111.274 88.3922 111.353 88.2415L115.233 80.9151L157.914 0.356006C158.034 0.128563 158.263 -0.0431378 158.529 0.00958163C158.782 0.023124 159.008 0.184306 159.101 0.420788L202.587 110.947C202.692 111.219 202.605 111.53 202.373 111.706L134.064 163.468C133.949 163.556 133.811 163.601 133.669 163.601ZM112.633 88.6181L134.031 161.854L201.189 110.962L185.87 72.0252L158.405 2.22222L156.733 5.38536L112.633 88.6181Z" stroke="url(#grad1)"/>
<path d="M133.67 163.601C133.603 163.601 133.534 163.591 133.468 163.57L43.8937 134.818L0.456287 120.873C0.27854 120.816 0.130923 120.686 0.0556226 120.515C-0.0196776 120.343 -0.0166757 120.147 0.0616477 119.978L29.6084 55.7683C29.753 55.4489 30.1265 55.3059 30.4428 55.4339L112.172 87.9404C112.359 88.0142 112.501 88.1709 112.558 88.3637L134.296 162.764C134.365 162.997 134.299 163.247 134.124 163.416C134.001 163.536 133.838 163.601 133.67 163.601ZM44.2914 133.571L45.9904 134.11L132.697 161.947L111.392 89.037L30.5362 56.8769L1.55585 119.853L44.2914 133.571Z" stroke="url(#grad1)"/>
<path d="M106.785 269.506C106.683 269.506 106.583 269.482 106.487 269.434C106.216 269.295 106.077 268.986 106.153 268.691L133.036 162.786C133.072 162.643 133.157 162.517 133.274 162.426L201.583 110.664C201.812 110.49 202.125 110.486 202.354 110.652C202.589 110.816 202.686 111.113 202.601 111.384L179.772 182.868C179.745 182.949 179.703 183.024 179.649 183.089L116.802 257.942L107.285 269.272C107.159 269.425 106.972 269.506 106.785 269.506ZM134.247 163.33L108.123 266.242L178.564 182.346L200.727 112.952L134.247 163.33Z" stroke="url(#grad1)"/>
</svg>
